<?xml version="1.0" encoding="UTF-8" standalone="no"?><svg xmlns="http://www.w3.org/2000/svg" xmlns:xlink="http://www.w3.org/1999/xlink" contentScriptType="application/ecmascript" contentStyleType="text/css" height="311px" preserveAspectRatio="none" style="width:265px;height:311px;" version="1.1" viewBox="0 0 265 311" width="265px" zoomAndPan="magnify"><defs><filter height="300%" id="fepd74z2hg53" width="300%" x="-1" y="-1"><feGaussianBlur result="blurOut" stdDeviation="2.0"/><feColorMatrix in="blurOut" result="blurOut2" type="matrix" values="0 0 0 0 0 0 0 0 0 0 0 0 0 0 0 0 0 0 .4 0"/><feOffset dx="4.0" dy="4.0" in="blurOut2" result="blurOut3"/><feBlend in="SourceGraphic" in2="blurOut3" mode="normal"/></filter></defs><g><!--MD5=[b14aa3529a60505823c7fa67d4fbe949]
entity caddy--><rect fill="#FEFECE" filter="url(#fepd74z2hg53)" height="46.2969" style="stroke: #A80036; stroke-width: 1.5;" width="81" x="74.5" y="8"/><rect fill="#FEFECE" height="10" style="stroke: #A80036; stroke-width: 1.5;" width="15" x="135.5" y="13"/><rect fill="#FEFECE" height="2" style="stroke: #A80036; stroke-width: 1.5;" width="4" x="133.5" y="15"/><rect fill="#FEFECE" height="2" style="stroke: #A80036; stroke-width: 1.5;" width="4" x="133.5" y="19"/><text fill="#000000" font-family="sans-serif" font-size="14" lengthAdjust="spacingAndGlyphs" textLength="41" x="89.5" y="40.9951">caddy</text><!--MD5=[43030a5e48a55402ac9ddc0b9f97953f]
entity portainer--><rect fill="#FEFECE" filter="url(#fepd74z2hg53)" height="46.2969" style="stroke: #A80036; stroke-width: 1.5;" width="102" x="6" y="131"/><rect fill="#FEFECE" height="10" style="stroke: #A80036; stroke-width: 1.5;" width="15" x="88" y="136"/><rect fill="#FEFECE" height="2" style="stroke: #A80036; stroke-width: 1.5;" width="4" x="86" y="138"/><rect fill="#FEFECE" height="2" style="stroke: #A80036; stroke-width: 1.5;" width="4" x="86" y="142"/><text fill="#000000" font-family="sans-serif" font-size="14" lengthAdjust="spacingAndGlyphs" textLength="62" x="21" y="163.9951">portainer</text><!--MD5=[4c9ba0c5f39c7966e2bc3d11d47e885f]
entity yapi--><rect fill="#FEFECE" filter="url(#fepd74z2hg53)" height="46.2969" style="stroke: #A80036; stroke-width: 1.5;" width="67" x="143.5" y="131"/><rect fill="#FEFECE" height="10" style="stroke: #A80036; stroke-width: 1.5;" width="15" x="190.5" y="136"/><rect fill="#FEFECE" height="2" style="stroke: #A80036; stroke-width: 1.5;" width="4" x="188.5" y="138"/><rect fill="#FEFECE" height="2" style="stroke: #A80036; stroke-width: 1.5;" width="4" x="188.5" y="142"/><text fill="#000000" font-family="sans-serif" font-size="14" lengthAdjust="spacingAndGlyphs" textLength="27" x="158.5" y="163.9951">yapi</text><!--MD5=[54f53d6eaf65ee0ce99f989fbd43ab97]
entity yapi-mongo--><rect fill="#FEFECE" filter="url(#fepd74z2hg53)" height="46.2969" style="stroke: #A80036; stroke-width: 1.5;" width="121" x="116.5" y="254"/><rect fill="#FEFECE" height="10" style="stroke: #A80036; stroke-width: 1.5;" width="15" x="217.5" y="259"/><rect fill="#FEFECE" height="2" style="stroke: #A80036; stroke-width: 1.5;" width="4" x="215.5" y="261"/><rect fill="#FEFECE" height="2" style="stroke: #A80036; stroke-width: 1.5;" width="4" x="215.5" y="265"/><text fill="#000000" font-family="sans-serif" font-size="14" lengthAdjust="spacingAndGlyphs" textLength="81" x="131.5" y="286.9951">yapi-mongo</text><!--MD5=[5a72d451b02aee77c78d3b7225f9f0db]
link caddy to portainer--><path d="M79.149,54.0335 C69.4837,62.2202 60.2563,72.3436 55,84 C49.1761,96.9152 49.0687,112.5769 50.6802,125.8085 " fill="none" id="caddy-&gt;portainer" style="stroke: #A80036; stroke-width: 1.0; stroke-dasharray: 7.0,7.0;"/><polygon fill="#A80036" points="51.4035,130.9372,54.1074,121.4668,50.7052,125.9862,46.1858,122.584,51.4035,130.9372" style="stroke: #A80036; stroke-width: 1.0;"/><text fill="#000000" font-family="sans-serif" font-size="13" lengthAdjust="spacingAndGlyphs" textLength="75" x="56" y="97.0669">depends on</text><!--MD5=[d020395f0d7aad096e982aa1273a4803]
link caddy to yapi--><path d="M126.6617,54.1354 C137.0103,74.6655 152.1459,104.6926 163.1161,126.4561 " fill="none" id="caddy-&gt;yapi" style="stroke: #A80036; stroke-width: 1.0; stroke-dasharray: 7.0,7.0;"/><polygon fill="#A80036" points="165.3906,130.9684,164.9115,121.1312,163.14,126.5035,157.7677,124.7321,165.3906,130.9684" style="stroke: #A80036; stroke-width: 1.0;"/><text fill="#000000" font-family="sans-serif" font-size="13" lengthAdjust="spacingAndGlyphs" textLength="75" x="151" y="97.0669">depends on</text><!--MD5=[a2631a2243a0b05efccba592485d73f8]
link yapi to yapi-mongo--><path d="M177,177.1354 C177,197.4937 177,227.1907 177,248.908 " fill="none" id="yapi-&gt;yapi-mongo" style="stroke: #A80036; stroke-width: 1.0; stroke-dasharray: 7.0,7.0;"/><polygon fill="#A80036" points="177,253.9684,181,244.9684,177,248.9684,173,244.9684,177,253.9684" style="stroke: #A80036; stroke-width: 1.0;"/><text fill="#000000" font-family="sans-serif" font-size="13" lengthAdjust="spacingAndGlyphs" textLength="75" x="178" y="220.0669">depends on</text><!--MD5=[b7ac796838322750ed49df22b717c33e]
@startuml
skinparam componentStyle uml2
[caddy]
[portainer]
[yapi]
[yapi-mongo]
[caddy] ..> [portainer] : depends on
[caddy] ..> [yapi] : depends on
[yapi] ..> [yapi-mongo] : depends on

@enduml

PlantUML version 1.2019.11(Sun Sep 22 10:02:15 GMT 2019)
(GPL source distribution)
Java Runtime: OpenJDK Runtime Environment
JVM: OpenJDK 64-Bit Server VM
Java Version: 14-ea+15
Operating System: Linux
Default Encoding: UTF-8
Language: en
Country: US
--></g></svg>